<mxfile host="app.diagrams.net" modified="2020-04-06T21:03:34.668Z" agent="5.0 (X11)" etag="F_0v0Whh5h-9SWYTQ-Xe" version="12.9.8" type="github">
  <diagram id="C5RBs43oDa-KdzZeNtuy" name="Page-1">
    <mxGraphModel dx="1068" dy="494" grid="1" gridSize="10" guides="1" tooltips="1" connect="1" arrows="1" fold="1" page="1" pageScale="1" pageWidth="827" pageHeight="1169" math="0" shadow="0">
      <root>
        <mxCell id="WIyWlLk6GJQsqaUBKTNV-0" />
        <mxCell id="WIyWlLk6GJQsqaUBKTNV-1" parent="WIyWlLk6GJQsqaUBKTNV-0" />
        <mxCell id="WIyWlLk6GJQsqaUBKTNV-2" value="" style="rounded=0;html=1;jettySize=auto;orthogonalLoop=1;fontSize=11;endArrow=block;endFill=0;endSize=8;strokeWidth=1;shadow=0;labelBackgroundColor=none;edgeStyle=orthogonalEdgeStyle;entryX=0.5;entryY=0;entryDx=0;entryDy=0;" parent="WIyWlLk6GJQsqaUBKTNV-1" source="WIyWlLk6GJQsqaUBKTNV-3" target="fu6Kdls6MOXoqfTzqDcU-17" edge="1">
          <mxGeometry relative="1" as="geometry">
            <mxPoint x="215.00000000000023" y="150" as="targetPoint" />
          </mxGeometry>
        </mxCell>
        <mxCell id="WIyWlLk6GJQsqaUBKTNV-3" value="What collection type should I use?" style="rounded=1;whiteSpace=wrap;html=1;fontSize=12;glass=0;strokeWidth=1;shadow=0;" parent="WIyWlLk6GJQsqaUBKTNV-1" vertex="1">
          <mxGeometry x="155" y="110" width="120" height="40" as="geometry" />
        </mxCell>
        <mxCell id="WIyWlLk6GJQsqaUBKTNV-7" value="&lt;div align=&quot;center&quot;&gt;Use typeclasses such as Functor or Foldable to specify the behaviours you want.&lt;/div&gt;&lt;div align=&quot;center&quot;&gt;&lt;br&gt;&lt;/div&gt;&lt;div align=&quot;center&quot;&gt;E.g.&lt;/div&gt;&lt;div align=&quot;center&quot;&gt;&lt;pre&gt;def f[F: Functor](a: F[Int]): F[String] = a.map(_.toString)&lt;/pre&gt;&lt;/div&gt;" style="rounded=1;whiteSpace=wrap;html=1;fontSize=12;glass=0;strokeWidth=1;shadow=0;align=center;" parent="WIyWlLk6GJQsqaUBKTNV-1" vertex="1">
          <mxGeometry x="360" y="176.88" width="370" height="106.25" as="geometry" />
        </mxCell>
        <mxCell id="fu6Kdls6MOXoqfTzqDcU-18" style="edgeStyle=orthogonalEdgeStyle;rounded=0;orthogonalLoop=1;jettySize=auto;html=1;endArrow=block;endFill=0;entryX=0.5;entryY=0;entryDx=0;entryDy=0;" parent="WIyWlLk6GJQsqaUBKTNV-1" source="fu6Kdls6MOXoqfTzqDcU-17" target="fu6Kdls6MOXoqfTzqDcU-20" edge="1">
          <mxGeometry relative="1" as="geometry">
            <mxPoint x="215" y="350" as="targetPoint" />
          </mxGeometry>
        </mxCell>
        <mxCell id="fu6Kdls6MOXoqfTzqDcU-19" value="No" style="text;html=1;align=center;verticalAlign=middle;resizable=0;points=[];" parent="fu6Kdls6MOXoqfTzqDcU-18" vertex="1" connectable="0">
          <mxGeometry x="0.1699" y="1" relative="1" as="geometry">
            <mxPoint x="8" as="offset" />
          </mxGeometry>
        </mxCell>
        <mxCell id="fu6Kdls6MOXoqfTzqDcU-24" style="edgeStyle=orthogonalEdgeStyle;rounded=0;orthogonalLoop=1;jettySize=auto;html=1;entryX=0;entryY=0.5;entryDx=0;entryDy=0;endArrow=block;endFill=0;" parent="WIyWlLk6GJQsqaUBKTNV-1" source="fu6Kdls6MOXoqfTzqDcU-17" target="WIyWlLk6GJQsqaUBKTNV-7" edge="1">
          <mxGeometry relative="1" as="geometry" />
        </mxCell>
        <mxCell id="fu6Kdls6MOXoqfTzqDcU-25" value="Yes" style="text;html=1;align=center;verticalAlign=middle;resizable=0;points=[];" parent="fu6Kdls6MOXoqfTzqDcU-24" vertex="1" connectable="0">
          <mxGeometry x="0.3002" y="-2" relative="1" as="geometry">
            <mxPoint x="-12" y="-8" as="offset" />
          </mxGeometry>
        </mxCell>
        <mxCell id="fu6Kdls6MOXoqfTzqDcU-17" value="I want to write a function that works with all kinds of collections." style="shape=document;whiteSpace=wrap;html=1;boundedLbl=1;align=center;" parent="WIyWlLk6GJQsqaUBKTNV-1" vertex="1">
          <mxGeometry x="145" y="190" width="140" height="80" as="geometry" />
        </mxCell>
        <mxCell id="fu6Kdls6MOXoqfTzqDcU-21" style="edgeStyle=orthogonalEdgeStyle;rounded=0;orthogonalLoop=1;jettySize=auto;html=1;endArrow=block;endFill=0;entryX=0;entryY=0.5;entryDx=0;entryDy=0;" parent="WIyWlLk6GJQsqaUBKTNV-1" source="fu6Kdls6MOXoqfTzqDcU-20" target="fu6Kdls6MOXoqfTzqDcU-23" edge="1">
          <mxGeometry relative="1" as="geometry">
            <mxPoint x="369.9999999999998" y="390.0000000000001" as="targetPoint" />
          </mxGeometry>
        </mxCell>
        <mxCell id="fu6Kdls6MOXoqfTzqDcU-22" value="Yes" style="text;html=1;align=center;verticalAlign=middle;resizable=0;points=[];" parent="fu6Kdls6MOXoqfTzqDcU-21" vertex="1" connectable="0">
          <mxGeometry x="-0.1885" y="1" relative="1" as="geometry">
            <mxPoint x="7" y="-6" as="offset" />
          </mxGeometry>
        </mxCell>
        <mxCell id="fu6Kdls6MOXoqfTzqDcU-26" style="edgeStyle=orthogonalEdgeStyle;rounded=0;orthogonalLoop=1;jettySize=auto;html=1;endArrow=block;endFill=0;entryX=0.5;entryY=0;entryDx=0;entryDy=0;" parent="WIyWlLk6GJQsqaUBKTNV-1" source="fu6Kdls6MOXoqfTzqDcU-20" target="fu6Kdls6MOXoqfTzqDcU-28" edge="1">
          <mxGeometry relative="1" as="geometry">
            <mxPoint x="214.99999999999977" y="560" as="targetPoint" />
          </mxGeometry>
        </mxCell>
        <mxCell id="fu6Kdls6MOXoqfTzqDcU-27" value="No" style="text;html=1;align=center;verticalAlign=middle;resizable=0;points=[];" parent="fu6Kdls6MOXoqfTzqDcU-26" vertex="1" connectable="0">
          <mxGeometry x="-0.1517" y="-1" relative="1" as="geometry">
            <mxPoint x="10" as="offset" />
          </mxGeometry>
        </mxCell>
        <mxCell id="fu6Kdls6MOXoqfTzqDcU-20" value="My collection is infinite/too large to fit in RAM/comes from IO in chunks (e.g. disk or network)" style="shape=document;whiteSpace=wrap;html=1;boundedLbl=1;align=center;" parent="WIyWlLk6GJQsqaUBKTNV-1" vertex="1">
          <mxGeometry x="150" y="310" width="130" height="100" as="geometry" />
        </mxCell>
        <mxCell id="fu6Kdls6MOXoqfTzqDcU-23" value="&lt;div&gt;Use a stream, either fs2 Stream or ZIO ZStream.&lt;/div&gt;&lt;div&gt;&lt;br&gt;&lt;/div&gt;&lt;div&gt;&lt;a href=&quot;https://fs2.io/&quot;&gt;https://fs2.io/&lt;/a&gt;&lt;/div&gt;&lt;div&gt;&lt;a href=&quot;https://zio.dev/docs/datatypes/datatypes_stream&quot;&gt;https://zio.dev/docs/datatypes/datatypes_stream&lt;/a&gt;&lt;br&gt;&lt;/div&gt;" style="rounded=1;whiteSpace=wrap;html=1;align=center;" parent="WIyWlLk6GJQsqaUBKTNV-1" vertex="1">
          <mxGeometry x="360" y="312.5" width="230" height="95" as="geometry" />
        </mxCell>
        <mxCell id="fu6Kdls6MOXoqfTzqDcU-29" style="edgeStyle=orthogonalEdgeStyle;rounded=0;orthogonalLoop=1;jettySize=auto;html=1;endArrow=block;endFill=0;entryX=0;entryY=0.5;entryDx=0;entryDy=0;" parent="WIyWlLk6GJQsqaUBKTNV-1" source="fu6Kdls6MOXoqfTzqDcU-28" target="fu6Kdls6MOXoqfTzqDcU-31" edge="1">
          <mxGeometry relative="1" as="geometry">
            <mxPoint x="419.9999999999998" y="550" as="targetPoint" />
          </mxGeometry>
        </mxCell>
        <mxCell id="fu6Kdls6MOXoqfTzqDcU-30" value="Yes" style="text;html=1;align=center;verticalAlign=middle;resizable=0;points=[];" parent="fu6Kdls6MOXoqfTzqDcU-29" vertex="1" connectable="0">
          <mxGeometry x="-0.1926" y="-1" relative="1" as="geometry">
            <mxPoint y="-8" as="offset" />
          </mxGeometry>
        </mxCell>
        <mxCell id="gvYNrbQ_9Db4uod6UnqN-0" style="edgeStyle=orthogonalEdgeStyle;rounded=0;orthogonalLoop=1;jettySize=auto;html=1;endArrow=block;endFill=0;entryX=0.5;entryY=0;entryDx=0;entryDy=0;" edge="1" parent="WIyWlLk6GJQsqaUBKTNV-1" source="fu6Kdls6MOXoqfTzqDcU-28" target="gvYNrbQ_9Db4uod6UnqN-2">
          <mxGeometry relative="1" as="geometry">
            <mxPoint x="215" y="670" as="targetPoint" />
          </mxGeometry>
        </mxCell>
        <mxCell id="gvYNrbQ_9Db4uod6UnqN-1" value="No" style="text;html=1;align=center;verticalAlign=middle;resizable=0;points=[];" vertex="1" connectable="0" parent="gvYNrbQ_9Db4uod6UnqN-0">
          <mxGeometry x="-0.1571" y="2" relative="1" as="geometry">
            <mxPoint x="7" as="offset" />
          </mxGeometry>
        </mxCell>
        <mxCell id="fu6Kdls6MOXoqfTzqDcU-28" value="My collection is quite small, and performance will likely never matter. " style="shape=document;whiteSpace=wrap;html=1;boundedLbl=1;align=center;" parent="WIyWlLk6GJQsqaUBKTNV-1" vertex="1">
          <mxGeometry x="150" y="450" width="130" height="80" as="geometry" />
        </mxCell>
        <mxCell id="fu6Kdls6MOXoqfTzqDcU-31" value="&lt;div&gt;Use List[A].&lt;/div&gt;&lt;div&gt;&lt;br&gt;&lt;/div&gt;&lt;div&gt;Lists provides clean syntax for building and pattern matching.&lt;br&gt;&lt;/div&gt;" style="rounded=1;whiteSpace=wrap;html=1;align=center;" parent="WIyWlLk6GJQsqaUBKTNV-1" vertex="1">
          <mxGeometry x="360" y="452.5" width="140" height="75" as="geometry" />
        </mxCell>
        <mxCell id="gvYNrbQ_9Db4uod6UnqN-4" style="edgeStyle=orthogonalEdgeStyle;rounded=0;orthogonalLoop=1;jettySize=auto;html=1;endArrow=block;endFill=0;entryX=0;entryY=0.5;entryDx=0;entryDy=0;" edge="1" parent="WIyWlLk6GJQsqaUBKTNV-1" source="gvYNrbQ_9Db4uod6UnqN-2" target="gvYNrbQ_9Db4uod6UnqN-5">
          <mxGeometry relative="1" as="geometry">
            <mxPoint x="420" y="730" as="targetPoint" />
          </mxGeometry>
        </mxCell>
        <mxCell id="gvYNrbQ_9Db4uod6UnqN-6" value="Yes" style="text;html=1;align=center;verticalAlign=middle;resizable=0;points=[];" vertex="1" connectable="0" parent="gvYNrbQ_9Db4uod6UnqN-4">
          <mxGeometry x="-0.3311" y="1" relative="1" as="geometry">
            <mxPoint x="4" y="-9" as="offset" />
          </mxGeometry>
        </mxCell>
        <mxCell id="gvYNrbQ_9Db4uod6UnqN-7" style="edgeStyle=orthogonalEdgeStyle;rounded=0;orthogonalLoop=1;jettySize=auto;html=1;endArrow=block;endFill=0;entryX=0.5;entryY=0;entryDx=0;entryDy=0;" edge="1" parent="WIyWlLk6GJQsqaUBKTNV-1" source="gvYNrbQ_9Db4uod6UnqN-2" target="gvYNrbQ_9Db4uod6UnqN-10">
          <mxGeometry relative="1" as="geometry">
            <mxPoint x="215" y="740" as="targetPoint" />
          </mxGeometry>
        </mxCell>
        <mxCell id="gvYNrbQ_9Db4uod6UnqN-8" value="No" style="text;html=1;align=center;verticalAlign=middle;resizable=0;points=[];" vertex="1" connectable="0" parent="gvYNrbQ_9Db4uod6UnqN-7">
          <mxGeometry x="-0.1673" y="1" relative="1" as="geometry">
            <mxPoint x="9" as="offset" />
          </mxGeometry>
        </mxCell>
        <mxCell id="gvYNrbQ_9Db4uod6UnqN-2" value="I will be adding elements to my collection/ concatenating my collection with others a lot." style="shape=document;whiteSpace=wrap;html=1;boundedLbl=1;" vertex="1" parent="WIyWlLk6GJQsqaUBKTNV-1">
          <mxGeometry x="142.5" y="580" width="145" height="90" as="geometry" />
        </mxCell>
        <mxCell id="gvYNrbQ_9Db4uod6UnqN-5" value="&lt;div&gt;&lt;p&gt;Use Chain[A] from cats.&lt;/p&gt;&lt;p&gt;Chain allows constant time prepending and appending.&lt;/p&gt;&lt;/div&gt;&lt;div&gt;&lt;p&gt;&lt;a href=&quot;https://typelevel.org/cats/datatypes/chain.html&quot;&gt;https://typelevel.org/cats/datatypes/chain.html&lt;/a&gt;&lt;/p&gt;&lt;/div&gt;" style="rounded=1;whiteSpace=wrap;html=1;" vertex="1" parent="WIyWlLk6GJQsqaUBKTNV-1">
          <mxGeometry x="360" y="572.5" width="160" height="105" as="geometry" />
        </mxCell>
        <mxCell id="gvYNrbQ_9Db4uod6UnqN-11" style="edgeStyle=orthogonalEdgeStyle;rounded=0;orthogonalLoop=1;jettySize=auto;html=1;endArrow=block;endFill=0;entryX=0;entryY=0.5;entryDx=0;entryDy=0;" edge="1" parent="WIyWlLk6GJQsqaUBKTNV-1" source="gvYNrbQ_9Db4uod6UnqN-10" target="gvYNrbQ_9Db4uod6UnqN-13">
          <mxGeometry relative="1" as="geometry">
            <mxPoint x="360" y="760" as="targetPoint" />
          </mxGeometry>
        </mxCell>
        <mxCell id="gvYNrbQ_9Db4uod6UnqN-12" value="Yes" style="text;html=1;align=center;verticalAlign=middle;resizable=0;points=[];" vertex="1" connectable="0" parent="gvYNrbQ_9Db4uod6UnqN-11">
          <mxGeometry x="0.2874" y="1" relative="1" as="geometry">
            <mxPoint x="-7" y="-7" as="offset" />
          </mxGeometry>
        </mxCell>
        <mxCell id="gvYNrbQ_9Db4uod6UnqN-14" style="edgeStyle=orthogonalEdgeStyle;rounded=0;orthogonalLoop=1;jettySize=auto;html=1;endArrow=block;endFill=0;entryX=0.5;entryY=0;entryDx=0;entryDy=0;" edge="1" parent="WIyWlLk6GJQsqaUBKTNV-1" source="gvYNrbQ_9Db4uod6UnqN-10" target="gvYNrbQ_9Db4uod6UnqN-16">
          <mxGeometry relative="1" as="geometry">
            <mxPoint x="215" y="860" as="targetPoint" />
          </mxGeometry>
        </mxCell>
        <mxCell id="gvYNrbQ_9Db4uod6UnqN-15" value="No" style="text;html=1;align=center;verticalAlign=middle;resizable=0;points=[];" vertex="1" connectable="0" parent="gvYNrbQ_9Db4uod6UnqN-14">
          <mxGeometry x="-0.2476" y="-2" relative="1" as="geometry">
            <mxPoint x="13" as="offset" />
          </mxGeometry>
        </mxCell>
        <mxCell id="gvYNrbQ_9Db4uod6UnqN-10" value="I am prepending or accessing the first element a lot." style="shape=document;whiteSpace=wrap;html=1;boundedLbl=1;" vertex="1" parent="WIyWlLk6GJQsqaUBKTNV-1">
          <mxGeometry x="155" y="720" width="120" height="80" as="geometry" />
        </mxCell>
        <mxCell id="gvYNrbQ_9Db4uod6UnqN-13" value="&lt;div&gt;Use List[A].&lt;/div&gt;&lt;div&gt;&lt;br&gt;&lt;/div&gt;&lt;div&gt;Lists provide constant time access to the head, as well as constant time prepend operation. However, most of the other operations take linear time, so watch out!&lt;br&gt;&lt;/div&gt;" style="rounded=1;whiteSpace=wrap;html=1;" vertex="1" parent="WIyWlLk6GJQsqaUBKTNV-1">
          <mxGeometry x="360" y="705" width="200" height="110" as="geometry" />
        </mxCell>
        <mxCell id="gvYNrbQ_9Db4uod6UnqN-16" value="&lt;div&gt;Use Vector[A].&lt;/div&gt;&lt;div&gt;&lt;br&gt;&lt;/div&gt;&lt;div&gt;Vectors provide constant time random access, as well as faster iteration than lists due to better locality. &lt;br&gt;&lt;/div&gt;&lt;div&gt;&lt;br&gt;&lt;/div&gt;&lt;div&gt;(They have close to contiguous memory usage, meaning more often than not a chunk of your collection will be fetched in a single cache line)&lt;br&gt;&lt;/div&gt;" style="rounded=1;whiteSpace=wrap;html=1;" vertex="1" parent="WIyWlLk6GJQsqaUBKTNV-1">
          <mxGeometry x="106.25" y="850" width="217.5" height="160" as="geometry" />
        </mxCell>
      </root>
    </mxGraphModel>
  </diagram>
</mxfile>
